<svg id="Layer_1" data-name="Layer 1" xmlns="http://www.w3.org/2000/svg" viewBox="0 0 300 300"><defs><style>.cls-1{fill:#999797;}.cls-2{fill:#f47421;}</style></defs><title>1</title><path class="cls-1" d="M126.70419,243.60984H83.18526V229.34329a84.85826,84.85826,0,0,1-20.05175-8.37873L51.6994,232.39782,20.92859,201.627l11.2625-11.26334a83.666,83.666,0,0,1-8.71186-20.53126H7.033V126.31433H23.1318a83.97432,83.97432,0,0,1,8.82711-21.38007L20.00407,92.97859,50.75974,62.20778,62.73981,74.17607a84.84519,84.84519,0,0,1,20.44545-8.60923v-14.068h43.51893V65.08649A84.17488,84.17488,0,0,1,148.605,73.94894l11.44757-11.44673,30.754,30.78427-11.249,11.26165a83.43693,83.43693,0,0,1,9.04667,21.7662h15.1894v43.51809H188.27441a83.6557,83.6557,0,0,1-8.95246,20.9258l10.5609,10.57352-30.75567,30.77-10.90581-10.90581a85.12317,85.12317,0,0,1-21.51719,8.63279ZM93.5224,233.27271h22.84466v-11.8194l4.15908-.82862a74.98028,74.98028,0,0,0,25.71665-10.30264l3.49787-2.22507,9.38317,9.384,16.145-16.15261-9.183-9.19473,2.3622-3.52563a73.462,73.462,0,0,0,10.73756-25.063l.89844-4.04972h13.37232V136.65146H180.27592l-.84629-4.13216a73.22307,73.22307,0,0,0-10.746-25.85966l-2.33191-3.51974,9.84417-9.85342L160.04919,77.12461l-9.96362,9.96362-3.508-2.26461A74.03573,74.03573,0,0,0,120.54128,74.3031l-4.17422-.81768V61.836H93.5224v11.917l-4.04636.90012A74.66178,74.66178,0,0,0,64.80421,85.04992l-3.51133,2.29153L50.76479,76.82513,34.62143,92.9769l10.50706,10.50791-2.2949,3.51385a73.87767,73.87767,0,0,0-10.53987,25.53158l-.85217,4.12123H17.37016v22.84382H31.66027l.90181,4.04215a73.49312,73.49312,0,0,0,10.50286,24.71221l2.337,3.52226-9.85426,9.8551L51.6994,217.77879l9.95689-9.95521,3.50712,2.268a74.677,74.677,0,0,0,24.31935,10.16973l4.03963.90517Zm12.341-24.03333c-34.3284,0-62.25667-27.718-62.25667-61.7881,0-34.06426,27.92826-61.778,62.25667-61.778,34.32925,0,62.25667,27.71375,62.25667,61.778C168.12,181.52142,140.1926,209.23938,105.86336,209.23938Zm0-113.229c-28.62817,0-51.91953,23.076-51.91953,51.44087,0,28.36991,23.29136,51.451,51.91953,51.451,28.629,0,51.91953-23.08105,51.91953-51.451C157.78289,119.08641,134.49238,96.01041,105.86336,96.01041Z"/><path class="cls-2" d="M240.6092,197.7038a14.94787,14.94787,0,1,0,15.42,14.94041A15.20513,15.20513,0,0,0,240.6092,197.7038Z"/><path class="cls-1" d="M279.58291,187.17152l6.1336-6.13418L272.044,167.3654l-6.21378,6.202a46.76953,46.76953,0,0,0-16.25392-6.55642v-7.32137H230.227v7.55a46.7756,46.7756,0,0,0-15.37435,6.4763L208.319,167.194,194.63539,180.866l6.53361,6.5225a45.98954,45.98954,0,0,0-6.56812,15.92232h-8.77231v19.36107h8.93255a46.05735,46.05735,0,0,0,6.55642,15.42l-6.13418,6.1336L208.85589,257.898l6.21372-6.21372a46.76444,46.76444,0,0,0,15.15738,6.33945v7.67577h19.34937v-7.4471a46.16588,46.16588,0,0,0,16.02584-6.43069l5.89382,5.91663L285.19134,244.043l-5.73416-5.73416a46.04485,46.04485,0,0,0,6.67046-15.63693h8.39568V203.31081H286.299A46.17386,46.17386,0,0,0,279.58291,187.17152Zm-39.13268,58.47035a33.01132,33.01132,0,1,1,33.28447-33.01019A33.19073,33.19073,0,0,1,240.45023,245.64187Z"/><rect class="cls-2" x="24.94382" y="242.97976" width="164.27614" height="18.95141"/></svg>