<svg id="Layer_1" data-name="Layer 1" xmlns="http://www.w3.org/2000/svg" viewBox="0 0 300 300"><defs><style>.cls-1{fill:#999797;}.cls-2{fill:#f47421;}</style></defs><title>1</title><path class="cls-1" d="M115.59661,136.51346h18.78421V118.88075a9.39209,9.39209,0,0,0-9.39209-9.39209h0a9.39209,9.39209,0,0,0-9.39209,9.39209Z"/><path class="cls-1" d="M153.12531,95.64351h0a9.39209,9.39209,0,0,0-9.39209,9.39209v31.47786h18.78421V105.0356A9.39209,9.39209,0,0,0,153.12531,95.64351Z"/><path class="cls-1" d="M181.06777,86.4151h0a9.39069,9.39069,0,0,0-9.39069,9.39069v40.70767h18.78139V95.80578A9.39069,9.39069,0,0,0,181.06777,86.4151Z"/><path class="cls-2" d="M199.81027,136.51346h18.787V88.55582a9.39069,9.39069,0,0,0-9.39069-9.39069H209.201a9.39069,9.39069,0,0,0-9.39069,9.39069Z"/><path class="cls-1" d="M99.01987,224.98084a25.92949,25.92949,0,0,0,6.11625-21.7472l16.10612-18.19905c37.23731,22.90337,86.29444,16.83508,115.86627-16.57309,33.177-37.48159,29.25535-95.14593-8.7602-128.794C190.33187,6.0144,132.61847,9.11484,99.4416,46.59924,69.86636,80.00706,69.79416,129.43578,97.04784,163.617L80.93627,181.81923a25.91881,25.91881,0,0,0-20.84032,8.711l-4.85064,5.47841L26.65373,228.30976,16.193,240.12479a25.99,25.99,0,0,0,38.92129,34.45359Zm21.79633-63.8384C90.71951,134.50125,87.52443,88.7751,113.68942,59.211c26.17037-29.55935,71.94541-31.936,102.04435-5.29495,30.0961,26.64067,33.29118,72.36682,7.12379,101.9288C196.69033,185.4091,150.91233,187.78367,120.8162,161.14244Z"/><rect class="cls-2" x="81.0362" y="205.17844" width="205.3664" height="20.63244"/></svg>