<svg id="Layer_1" data-name="Layer 1" xmlns="http://www.w3.org/2000/svg" viewBox="0 0 300 300"><defs><style>.cls-1{fill:#989898;}.cls-2{fill:#999797;}.cls-3{fill:#f47421;}</style></defs><title>1</title><circle class="cls-1" cx="237.36322" cy="94.36565" r="27.48319"/><path class="cls-2" d="M207,211s-.47293-54.38341,20.0742-77.58538c0,0,15.53858,4.9789,31.00283,0,30.54146,21.29154,27.72589,75.89224,27.72589,75.89224"/><circle class="cls-3" cx="150.00814" cy="80.33909" r="42.12228" transform="translate(-12.87195 129.60255) rotate(-45)"/><path class="cls-2" d="M84.85852,248.54961s-4.05564-83.35985,42.5724-115.866c0,0,23.723,7.60137,47.33256,0,46.62818,32.50616,42.3296,115.866,42.3296,115.866"/><circle class="cls-1" cx="60.99133" cy="97.45217" r="27.48319"/><path class="cls-2" d="M111,211s-12.88557-54.38341-33.88825-73.834c0,0-15.53858,4.9789-31.00283,0C15.56746,158.45751,18.383,213.05822,18.383,213.05822"/><rect class="cls-3" x="60.54626" y="237.77683" width="178.84866" height="20.63244"/></svg>